<mxfile host="app.diagrams.net" modified="2023-05-14T23:56:39.615Z" agent="Mozilla/5.0 (Windows NT 10.0; Win64; x64) AppleWebKit/537.36 (KHTML, like Gecko) Chrome/113.0.0.0 Safari/537.36" etag="1bbRGHkVLFdjPSiKLt-u" version="21.2.9" type="device">
  <diagram name="Page-1" id="c1PPlRh59tjP9jA4HEjI">
    <mxGraphModel dx="2765" dy="2422" grid="1" gridSize="10" guides="1" tooltips="1" connect="1" arrows="1" fold="1" page="1" pageScale="1" pageWidth="827" pageHeight="1169" math="1" shadow="0">
      <root>
        <mxCell id="0" />
        <mxCell id="1" parent="0" />
        <mxCell id="py1Z9iVonoro-M1jEbM9-35" value="" style="group;rounded=1;fillColor=#CCCCCC;shadow=0;" vertex="1" connectable="0" parent="1">
          <mxGeometry x="210" y="-810" width="720" height="390" as="geometry" />
        </mxCell>
        <mxCell id="py1Z9iVonoro-M1jEbM9-34" value="" style="rounded=1;whiteSpace=wrap;html=1;fillColor=#FFCCCC;" vertex="1" parent="py1Z9iVonoro-M1jEbM9-35">
          <mxGeometry y="-5" width="720" height="390" as="geometry" />
        </mxCell>
        <mxCell id="py1Z9iVonoro-M1jEbM9-42" style="edgeStyle=orthogonalEdgeStyle;rounded=1;orthogonalLoop=1;jettySize=auto;html=1;exitX=1;exitY=0.5;exitDx=0;exitDy=0;" edge="1" parent="py1Z9iVonoro-M1jEbM9-35" source="py1Z9iVonoro-M1jEbM9-1" target="py1Z9iVonoro-M1jEbM9-7">
          <mxGeometry relative="1" as="geometry">
            <Array as="points">
              <mxPoint x="446" y="40" />
              <mxPoint x="446" y="113" />
            </Array>
          </mxGeometry>
        </mxCell>
        <mxCell id="py1Z9iVonoro-M1jEbM9-1" value="&lt;font size=&quot;3&quot;&gt;P- Controller&lt;br&gt;`K_p cdot e(t)`&lt;br&gt;&lt;/font&gt;" style="rounded=1;whiteSpace=wrap;html=1;fillColor=#FFB570;" vertex="1" parent="py1Z9iVonoro-M1jEbM9-35">
          <mxGeometry x="270" y="10" width="150" height="60" as="geometry" />
        </mxCell>
        <mxCell id="py1Z9iVonoro-M1jEbM9-7" value="&lt;font size=&quot;3&quot;&gt;Plant&lt;br&gt;(Rover Wheels)&lt;br&gt;&lt;/font&gt;" style="rounded=1;whiteSpace=wrap;html=1;fillColor=#EA6B66;" vertex="1" parent="py1Z9iVonoro-M1jEbM9-35">
          <mxGeometry x="496" y="83" width="120" height="60" as="geometry" />
        </mxCell>
        <mxCell id="py1Z9iVonoro-M1jEbM9-44" style="edgeStyle=orthogonalEdgeStyle;rounded=1;orthogonalLoop=1;jettySize=auto;html=1;exitX=1;exitY=0.5;exitDx=0;exitDy=0;exitPerimeter=0;" edge="1" parent="py1Z9iVonoro-M1jEbM9-35" source="py1Z9iVonoro-M1jEbM9-8" target="py1Z9iVonoro-M1jEbM9-17">
          <mxGeometry relative="1" as="geometry" />
        </mxCell>
        <mxCell id="py1Z9iVonoro-M1jEbM9-45" style="edgeStyle=orthogonalEdgeStyle;rounded=1;orthogonalLoop=1;jettySize=auto;html=1;exitX=1;exitY=0.5;exitDx=0;exitDy=0;exitPerimeter=0;entryX=0;entryY=0.5;entryDx=0;entryDy=0;" edge="1" parent="py1Z9iVonoro-M1jEbM9-35" source="py1Z9iVonoro-M1jEbM9-8" target="py1Z9iVonoro-M1jEbM9-1">
          <mxGeometry relative="1" as="geometry">
            <Array as="points">
              <mxPoint x="246" y="113" />
              <mxPoint x="246" y="40" />
            </Array>
          </mxGeometry>
        </mxCell>
        <mxCell id="py1Z9iVonoro-M1jEbM9-46" style="edgeStyle=orthogonalEdgeStyle;rounded=1;orthogonalLoop=1;jettySize=auto;html=1;exitX=1;exitY=0.5;exitDx=0;exitDy=0;exitPerimeter=0;entryX=0;entryY=0.5;entryDx=0;entryDy=0;" edge="1" parent="py1Z9iVonoro-M1jEbM9-35" source="py1Z9iVonoro-M1jEbM9-8" target="py1Z9iVonoro-M1jEbM9-18">
          <mxGeometry relative="1" as="geometry">
            <Array as="points">
              <mxPoint x="246" y="113" />
              <mxPoint x="246" y="190" />
            </Array>
          </mxGeometry>
        </mxCell>
        <mxCell id="py1Z9iVonoro-M1jEbM9-8" value="" style="verticalLabelPosition=bottom;shadow=0;dashed=0;align=center;html=1;verticalAlign=top;shape=mxgraph.electrical.abstract.sum;fillColor=#FFD966;rounded=1;" vertex="1" parent="py1Z9iVonoro-M1jEbM9-35">
          <mxGeometry x="135" y="87.5" width="50" height="50" as="geometry" />
        </mxCell>
        <mxCell id="py1Z9iVonoro-M1jEbM9-25" style="edgeStyle=orthogonalEdgeStyle;rounded=1;orthogonalLoop=1;jettySize=auto;html=1;exitX=1;exitY=0.5;exitDx=0;exitDy=0;entryX=0.5;entryY=1;entryDx=0;entryDy=0;entryPerimeter=0;" edge="1" parent="py1Z9iVonoro-M1jEbM9-35" source="py1Z9iVonoro-M1jEbM9-7" target="py1Z9iVonoro-M1jEbM9-8">
          <mxGeometry relative="1" as="geometry">
            <Array as="points">
              <mxPoint x="646" y="113" />
              <mxPoint x="646" y="275" />
              <mxPoint x="160" y="275" />
            </Array>
          </mxGeometry>
        </mxCell>
        <mxCell id="py1Z9iVonoro-M1jEbM9-40" style="edgeStyle=orthogonalEdgeStyle;rounded=1;orthogonalLoop=1;jettySize=auto;html=1;exitX=1;exitY=0.5;exitDx=0;exitDy=0;entryX=0;entryY=0.5;entryDx=0;entryDy=0;" edge="1" parent="py1Z9iVonoro-M1jEbM9-35" source="py1Z9iVonoro-M1jEbM9-17" target="py1Z9iVonoro-M1jEbM9-7">
          <mxGeometry relative="1" as="geometry" />
        </mxCell>
        <mxCell id="py1Z9iVonoro-M1jEbM9-17" value="&lt;font size=&quot;3&quot;&gt;I - Controller&lt;br&gt;`int K_i cdot dt`&lt;br&gt;&lt;/font&gt;" style="rounded=1;whiteSpace=wrap;html=1;fillColor=#7EA6E0;" vertex="1" parent="py1Z9iVonoro-M1jEbM9-35">
          <mxGeometry x="270" y="80" width="150" height="65" as="geometry" />
        </mxCell>
        <mxCell id="py1Z9iVonoro-M1jEbM9-43" style="edgeStyle=orthogonalEdgeStyle;rounded=1;orthogonalLoop=1;jettySize=auto;html=1;exitX=1;exitY=0.5;exitDx=0;exitDy=0;entryX=0;entryY=0.5;entryDx=0;entryDy=0;" edge="1" parent="py1Z9iVonoro-M1jEbM9-35" source="py1Z9iVonoro-M1jEbM9-18" target="py1Z9iVonoro-M1jEbM9-7">
          <mxGeometry relative="1" as="geometry">
            <Array as="points">
              <mxPoint x="446" y="190" />
              <mxPoint x="446" y="113" />
            </Array>
          </mxGeometry>
        </mxCell>
        <mxCell id="py1Z9iVonoro-M1jEbM9-18" value="&lt;font size=&quot;3&quot;&gt;D - Controller&lt;br&gt;`K_d cdot frac{de_t}{d_t}`&lt;br&gt;&lt;/font&gt;" style="rounded=1;whiteSpace=wrap;html=1;fillColor=#A680B8;" vertex="1" parent="py1Z9iVonoro-M1jEbM9-35">
          <mxGeometry x="270" y="160" width="150" height="60" as="geometry" />
        </mxCell>
        <mxCell id="py1Z9iVonoro-M1jEbM9-26" value="&lt;font style=&quot;font-size: 15px;&quot;&gt;Measured Velocity&amp;nbsp;&lt;/font&gt;" style="text;html=1;align=center;verticalAlign=middle;resizable=0;points=[];autosize=1;strokeColor=none;fillColor=none;rounded=1;" vertex="1" parent="py1Z9iVonoro-M1jEbM9-35">
          <mxGeometry x="285" y="245" width="150" height="30" as="geometry" />
        </mxCell>
        <mxCell id="py1Z9iVonoro-M1jEbM9-27" value="&lt;font style=&quot;font-size: 15px;&quot;&gt;Error&lt;/font&gt;" style="text;html=1;align=center;verticalAlign=middle;resizable=0;points=[];autosize=1;strokeColor=none;fillColor=none;rounded=1;" vertex="1" parent="py1Z9iVonoro-M1jEbM9-35">
          <mxGeometry x="185" y="85" width="60" height="30" as="geometry" />
        </mxCell>
        <mxCell id="py1Z9iVonoro-M1jEbM9-28" value="" style="endArrow=classic;html=1;rounded=1;" edge="1" parent="py1Z9iVonoro-M1jEbM9-35">
          <mxGeometry width="50" height="50" relative="1" as="geometry">
            <mxPoint x="45" y="115" as="sourcePoint" />
            <mxPoint x="135" y="115" as="targetPoint" />
          </mxGeometry>
        </mxCell>
        <mxCell id="py1Z9iVonoro-M1jEbM9-29" value="&lt;font style=&quot;font-size: 15px;&quot;&gt;Target Speed&lt;/font&gt;" style="text;html=1;align=center;verticalAlign=middle;resizable=0;points=[];autosize=1;strokeColor=none;fillColor=none;rounded=1;" vertex="1" parent="py1Z9iVonoro-M1jEbM9-35">
          <mxGeometry x="20" y="83" width="110" height="30" as="geometry" />
        </mxCell>
        <mxCell id="py1Z9iVonoro-M1jEbM9-30" value="" style="endArrow=classic;html=1;rounded=1;exitX=1.014;exitY=0.511;exitDx=0;exitDy=0;exitPerimeter=0;" edge="1" parent="py1Z9iVonoro-M1jEbM9-35">
          <mxGeometry width="50" height="50" relative="1" as="geometry">
            <mxPoint x="615.6800000000001" y="112.66000000000008" as="sourcePoint" />
            <mxPoint x="683" y="113.5" as="targetPoint" />
            <Array as="points">
              <mxPoint x="664" y="113" />
            </Array>
          </mxGeometry>
        </mxCell>
        <mxCell id="py1Z9iVonoro-M1jEbM9-31" value="&lt;font style=&quot;font-size: 15px;&quot;&gt;Output&amp;nbsp;&lt;/font&gt;" style="text;html=1;align=center;verticalAlign=middle;resizable=0;points=[];autosize=1;strokeColor=none;fillColor=none;rounded=1;" vertex="1" parent="py1Z9iVonoro-M1jEbM9-35">
          <mxGeometry x="650" y="83" width="70" height="30" as="geometry" />
        </mxCell>
        <mxCell id="py1Z9iVonoro-M1jEbM9-32" value="&lt;font face=&quot;Times New Roman&quot; style=&quot;font-size: 24px;&quot;&gt;Rover Wheel Speed Controller using PID- Controller&amp;nbsp;&amp;nbsp;&lt;/font&gt;" style="text;html=1;align=center;verticalAlign=middle;resizable=0;points=[];autosize=1;strokeColor=none;fillColor=none;rounded=1;" vertex="1" parent="py1Z9iVonoro-M1jEbM9-35">
          <mxGeometry x="100" y="325" width="550" height="40" as="geometry" />
        </mxCell>
        <mxCell id="py1Z9iVonoro-M1jEbM9-36" value="&lt;font style=&quot;font-size: 15px;&quot;&gt;`v_(desired)`&lt;/font&gt;" style="text;html=1;strokeColor=none;fillColor=none;align=center;verticalAlign=middle;whiteSpace=wrap;rounded=0;" vertex="1" parent="py1Z9iVonoro-M1jEbM9-35">
          <mxGeometry x="45" y="115" width="60" height="30" as="geometry" />
        </mxCell>
        <mxCell id="py1Z9iVonoro-M1jEbM9-37" value="&lt;font style=&quot;font-size: 15px;&quot;&gt;`v_(measured)`&lt;/font&gt;" style="text;html=1;strokeColor=none;fillColor=none;align=center;verticalAlign=middle;whiteSpace=wrap;rounded=0;" vertex="1" parent="py1Z9iVonoro-M1jEbM9-35">
          <mxGeometry x="316" y="275" width="60" height="30" as="geometry" />
        </mxCell>
        <mxCell id="py1Z9iVonoro-M1jEbM9-47" value="`e_t`" style="text;html=1;strokeColor=none;fillColor=none;align=center;verticalAlign=middle;whiteSpace=wrap;rounded=0;" vertex="1" parent="py1Z9iVonoro-M1jEbM9-35">
          <mxGeometry x="185" y="113" width="60" height="30" as="geometry" />
        </mxCell>
        <mxCell id="py1Z9iVonoro-M1jEbM9-48" value="`u_t`" style="text;html=1;strokeColor=none;fillColor=none;align=center;verticalAlign=middle;whiteSpace=wrap;rounded=0;" vertex="1" parent="py1Z9iVonoro-M1jEbM9-35">
          <mxGeometry x="446" y="115" width="60" height="30" as="geometry" />
        </mxCell>
        <mxCell id="py1Z9iVonoro-M1jEbM9-78" value="" style="group;shadow=1;" vertex="1" connectable="0" parent="1">
          <mxGeometry x="-300" y="-820" width="480" height="990" as="geometry" />
        </mxCell>
        <mxCell id="py1Z9iVonoro-M1jEbM9-74" value="" style="rounded=1;whiteSpace=wrap;html=1;fillColor=#FFCCCC;" vertex="1" parent="py1Z9iVonoro-M1jEbM9-78">
          <mxGeometry width="480" height="990" as="geometry" />
        </mxCell>
        <mxCell id="py1Z9iVonoro-M1jEbM9-52" value="&lt;font style=&quot;font-size: 15px;&quot;&gt;Start&lt;/font&gt;" style="rounded=1;whiteSpace=wrap;html=1;fillColor=#E6D0DE;" vertex="1" parent="py1Z9iVonoro-M1jEbM9-78">
          <mxGeometry x="180" y="15" width="120" height="60" as="geometry" />
        </mxCell>
        <mxCell id="py1Z9iVonoro-M1jEbM9-53" value="&lt;font style=&quot;font-size: 15px;&quot;&gt;Time&amp;nbsp;Measurement&lt;br&gt;`Deltat = t_(current) - t_(pervious)`&lt;/font&gt;" style="rounded=1;whiteSpace=wrap;html=1;fillColor=#CDA2BE;" vertex="1" parent="py1Z9iVonoro-M1jEbM9-78">
          <mxGeometry x="125" y="98" width="230" height="62" as="geometry" />
        </mxCell>
        <mxCell id="py1Z9iVonoro-M1jEbM9-59" style="edgeStyle=orthogonalEdgeStyle;rounded=1;orthogonalLoop=1;jettySize=auto;html=1;exitX=0.5;exitY=1;exitDx=0;exitDy=0;entryX=0.5;entryY=0;entryDx=0;entryDy=0;" edge="1" parent="py1Z9iVonoro-M1jEbM9-78" source="py1Z9iVonoro-M1jEbM9-52" target="py1Z9iVonoro-M1jEbM9-53">
          <mxGeometry relative="1" as="geometry" />
        </mxCell>
        <mxCell id="py1Z9iVonoro-M1jEbM9-56" value="&lt;font style=&quot;font-size: 15px;&quot;&gt;`T_(On)`&lt;/font&gt;" style="rounded=1;whiteSpace=wrap;html=1;fillColor=#B5739D;" vertex="1" parent="py1Z9iVonoro-M1jEbM9-78">
          <mxGeometry x="180" y="190" width="120" height="50" as="geometry" />
        </mxCell>
        <mxCell id="py1Z9iVonoro-M1jEbM9-60" style="edgeStyle=orthogonalEdgeStyle;rounded=1;orthogonalLoop=1;jettySize=auto;html=1;exitX=0.5;exitY=1;exitDx=0;exitDy=0;entryX=0.5;entryY=0;entryDx=0;entryDy=0;" edge="1" parent="py1Z9iVonoro-M1jEbM9-78" source="py1Z9iVonoro-M1jEbM9-53" target="py1Z9iVonoro-M1jEbM9-56">
          <mxGeometry relative="1" as="geometry" />
        </mxCell>
        <mxCell id="py1Z9iVonoro-M1jEbM9-57" value="&lt;font style=&quot;font-size: 15px;&quot;&gt;`f_(req_(on))`&lt;/font&gt;" style="rounded=1;whiteSpace=wrap;html=1;fillColor=#E1D5E7;" vertex="1" parent="py1Z9iVonoro-M1jEbM9-78">
          <mxGeometry x="180" y="270" width="120" height="60" as="geometry" />
        </mxCell>
        <mxCell id="py1Z9iVonoro-M1jEbM9-61" value="" style="edgeStyle=orthogonalEdgeStyle;rounded=1;orthogonalLoop=1;jettySize=auto;html=1;" edge="1" parent="py1Z9iVonoro-M1jEbM9-78" source="py1Z9iVonoro-M1jEbM9-56" target="py1Z9iVonoro-M1jEbM9-57">
          <mxGeometry relative="1" as="geometry" />
        </mxCell>
        <mxCell id="py1Z9iVonoro-M1jEbM9-58" value="&lt;font style=&quot;font-size: 15px;&quot;&gt;`v_(measured)`&lt;/font&gt;" style="whiteSpace=wrap;html=1;rounded=1;fillColor=#C3ABD0;" vertex="1" parent="py1Z9iVonoro-M1jEbM9-78">
          <mxGeometry x="180" y="360" width="120" height="60" as="geometry" />
        </mxCell>
        <mxCell id="py1Z9iVonoro-M1jEbM9-62" value="" style="edgeStyle=orthogonalEdgeStyle;rounded=1;orthogonalLoop=1;jettySize=auto;html=1;" edge="1" parent="py1Z9iVonoro-M1jEbM9-78" source="py1Z9iVonoro-M1jEbM9-57" target="py1Z9iVonoro-M1jEbM9-58">
          <mxGeometry relative="1" as="geometry" />
        </mxCell>
        <mxCell id="py1Z9iVonoro-M1jEbM9-63" value="&lt;font style=&quot;font-size: 15px;&quot;&gt;`e(t)= v_(desired) - v_(measured)`&lt;/font&gt;" style="whiteSpace=wrap;html=1;rounded=1;fillColor=#A680B8;" vertex="1" parent="py1Z9iVonoro-M1jEbM9-78">
          <mxGeometry x="130" y="450" width="220" height="60" as="geometry" />
        </mxCell>
        <mxCell id="py1Z9iVonoro-M1jEbM9-64" value="" style="edgeStyle=orthogonalEdgeStyle;rounded=1;orthogonalLoop=1;jettySize=auto;html=1;" edge="1" parent="py1Z9iVonoro-M1jEbM9-78" source="py1Z9iVonoro-M1jEbM9-58" target="py1Z9iVonoro-M1jEbM9-63">
          <mxGeometry relative="1" as="geometry" />
        </mxCell>
        <mxCell id="py1Z9iVonoro-M1jEbM9-65" value="PID" style="whiteSpace=wrap;html=1;rounded=1;fillColor=#E6D0DE;" vertex="1" parent="py1Z9iVonoro-M1jEbM9-78">
          <mxGeometry x="180" y="530" width="120" height="60" as="geometry" />
        </mxCell>
        <mxCell id="py1Z9iVonoro-M1jEbM9-66" value="" style="edgeStyle=orthogonalEdgeStyle;rounded=1;orthogonalLoop=1;jettySize=auto;html=1;" edge="1" parent="py1Z9iVonoro-M1jEbM9-78" source="py1Z9iVonoro-M1jEbM9-63" target="py1Z9iVonoro-M1jEbM9-65">
          <mxGeometry relative="1" as="geometry" />
        </mxCell>
        <mxCell id="py1Z9iVonoro-M1jEbM9-67" value="&lt;font style=&quot;font-size: 15px;&quot;&gt;`u(t)`&lt;/font&gt;" style="whiteSpace=wrap;html=1;rounded=1;fillColor=#CDA2BE;" vertex="1" parent="py1Z9iVonoro-M1jEbM9-78">
          <mxGeometry x="180" y="620" width="120" height="60" as="geometry" />
        </mxCell>
        <mxCell id="py1Z9iVonoro-M1jEbM9-68" value="" style="edgeStyle=orthogonalEdgeStyle;rounded=1;orthogonalLoop=1;jettySize=auto;html=1;" edge="1" parent="py1Z9iVonoro-M1jEbM9-78" source="py1Z9iVonoro-M1jEbM9-65" target="py1Z9iVonoro-M1jEbM9-67">
          <mxGeometry relative="1" as="geometry" />
        </mxCell>
        <mxCell id="py1Z9iVonoro-M1jEbM9-71" style="edgeStyle=orthogonalEdgeStyle;rounded=1;orthogonalLoop=1;jettySize=auto;html=1;exitX=0.5;exitY=1;exitDx=0;exitDy=0;entryX=0;entryY=0.5;entryDx=0;entryDy=0;" edge="1" parent="py1Z9iVonoro-M1jEbM9-78" source="py1Z9iVonoro-M1jEbM9-69" target="py1Z9iVonoro-M1jEbM9-58">
          <mxGeometry relative="1" as="geometry">
            <mxPoint x="80" y="550" as="targetPoint" />
            <Array as="points">
              <mxPoint x="240" y="790" />
              <mxPoint x="60" y="790" />
              <mxPoint x="60" y="390" />
            </Array>
          </mxGeometry>
        </mxCell>
        <mxCell id="py1Z9iVonoro-M1jEbM9-69" value="&lt;font style=&quot;font-size: 15px;&quot;&gt;Plant&amp;nbsp;&lt;/font&gt;" style="whiteSpace=wrap;html=1;rounded=1;fillColor=#B5739D;" vertex="1" parent="py1Z9iVonoro-M1jEbM9-78">
          <mxGeometry x="180" y="710" width="120" height="60" as="geometry" />
        </mxCell>
        <mxCell id="py1Z9iVonoro-M1jEbM9-70" value="" style="edgeStyle=orthogonalEdgeStyle;rounded=1;orthogonalLoop=1;jettySize=auto;html=1;" edge="1" parent="py1Z9iVonoro-M1jEbM9-78" source="py1Z9iVonoro-M1jEbM9-67" target="py1Z9iVonoro-M1jEbM9-69">
          <mxGeometry relative="1" as="geometry" />
        </mxCell>
        <mxCell id="py1Z9iVonoro-M1jEbM9-72" value="&lt;font style=&quot;font-size: 15px;&quot;&gt;End&lt;/font&gt;" style="ellipse;whiteSpace=wrap;html=1;rounded=1;fillColor=#E1D5E7;" vertex="1" parent="py1Z9iVonoro-M1jEbM9-78">
          <mxGeometry x="180" y="810" width="120" height="80" as="geometry" />
        </mxCell>
        <mxCell id="py1Z9iVonoro-M1jEbM9-73" value="" style="edgeStyle=orthogonalEdgeStyle;rounded=1;orthogonalLoop=1;jettySize=auto;html=1;" edge="1" parent="py1Z9iVonoro-M1jEbM9-78" source="py1Z9iVonoro-M1jEbM9-69" target="py1Z9iVonoro-M1jEbM9-72">
          <mxGeometry relative="1" as="geometry" />
        </mxCell>
        <mxCell id="py1Z9iVonoro-M1jEbM9-77" value="&lt;font style=&quot;font-size: 36px;&quot; face=&quot;Times New Roman&quot;&gt;Flow Chart&amp;nbsp;&lt;/font&gt;" style="text;html=1;strokeColor=none;fillColor=none;align=center;verticalAlign=middle;whiteSpace=wrap;rounded=0;" vertex="1" parent="py1Z9iVonoro-M1jEbM9-78">
          <mxGeometry x="150" y="930" width="180" height="30" as="geometry" />
        </mxCell>
      </root>
    </mxGraphModel>
  </diagram>
</mxfile>
